<svg xmlns="http://www.w3.org/2000/svg" width="700" height="220"><style>.logo-fill{fill:$themeColorDark}</style><rect width="7.81" height="159.75" x="-3.905" y="-79.875" stroke="#fff" stroke-opacity="0" stroke-width="0" class="logo-fill" rx="1" ry="1" transform="matrix(1.1 0 0 1.1 234.29 110.94)"/><path d="M291.532 117.12q-7.452 0-13.928-2.816-6.496-2.797-11.316-7.82-4.84-5.005-7.563-11.72-2.705-6.717-2.705-14.537 0-7.728 2.705-14.407 2.723-6.66 7.563-11.684 4.82-5.005 11.26-7.857 6.44-2.852 13.984-2.852 7.084 0 12.2 1.84 5.096 1.84 10.248 6.072.736.552 1.16 1.141.404.607.552 1.196.128.607.128 1.435 0 1.748-1.25 2.889-1.234 1.16-2.982 1.288-1.748.147-3.404-1.14-3.404-2.945-7.028-4.509-3.644-1.564-9.624-1.564-5.428 0-10.212 2.208t-8.408 6.072q-3.644 3.864-5.668 8.961-2.024 5.115-2.024 10.911 0 5.888 2.024 10.985 2.024 5.115 5.668 8.98 3.624 3.863 8.408 6.016 4.784 2.171 10.212 2.171 4.692 0 8.888-1.619 4.176-1.6 8.04-4.453 1.656-1.196 3.276-1.067 1.6.147 2.704 1.288 1.104 1.16 1.104 3.183 0 .92-.368 1.785-.368.883-1.104 1.62-4.968 3.955-10.616 5.98-5.668 2.023-11.924 2.023zm55.66-.553q-6.716 0-12.052-3.367-5.336-3.349-8.427-9.108-3.073-5.74-3.073-13.009 0-7.268 3.35-13.064 3.366-5.796 9.107-9.163 5.76-3.349 12.935-3.349 7.176 0 12.88 3.349 5.704 3.367 9.053 9.163 3.367 5.796 3.367 13.064h-3.588q0 7.268-3.09 13.009-3.074 5.76-8.41 9.108-5.336 3.367-12.052 3.367zm1.84-8.28q4.692 0 8.372-2.263 3.68-2.245 5.796-6.164 2.116-3.9 2.116-8.777 0-4.968-2.116-8.887-2.116-3.9-5.796-6.164-3.68-2.245-8.372-2.245-4.6 0-8.335 2.245-3.717 2.263-5.888 6.164-2.153 3.92-2.153 8.887 0 4.876 2.153 8.777 2.171 3.92 5.888 6.164 3.735 2.263 8.335 2.263zm20.608 8.004q-2.024 0-3.367-1.343-1.325-1.325-1.325-3.349V97.523l1.748-9.752 7.636 3.312V111.6q0 2.024-1.343 3.349-1.325 1.343-3.349 1.343zm23.35 21.436q-2.006 0-3.349-1.325-1.343-1.343-1.343-3.367V91.083q.092-7.268 3.404-13.064 3.33-5.796 9.016-9.163 5.704-3.349 12.88-3.349 7.286 0 12.972 3.349 5.722 3.367 9.071 9.163 3.367 5.796 3.367 13.064t-3.09 13.009q-3.074 5.76-8.428 9.108-5.318 3.367-12.052 3.367-5.428 0-9.973-2.263-4.563-2.245-7.783-6.109v24.84q0 2.024-1.27 3.367-1.288 1.325-3.422 1.325zm20.608-29.44q4.692 0 8.372-2.263 3.68-2.245 5.851-6.164 2.171-3.9 2.171-8.777 0-4.968-2.17-8.887-2.172-3.9-5.852-6.164-3.68-2.245-8.372-2.245-4.6 0-8.317 2.245-3.717 2.263-5.851 6.164-2.098 3.92-2.098 8.887 0 4.876 2.098 8.777 2.134 3.92 5.851 6.164 3.717 2.263 8.317 2.263zm81.696 9.2q-5.796 0-10.212-2.171-4.416-2.153-6.845-6.164-2.447-3.993-2.447-9.605 0-6.256 4.232-11.316 4.232-5.06 11.132-10.58l7.636-6.072q4.876-3.864 6.256-6.808t1.472-6.072q0-3.496-2.337-6.072-2.355-2.576-6.771-2.576-4.048 0-6.532 2.392t-2.484 5.612q0 2.392 1.067 4.692 1.049 2.3 3.441 4.692l41.86 41.768q1.472 1.472 1.656 2.76.184 1.288-1.288 2.76-2.944 2.944-5.888 0L486.922 72.5q-3.128-3.22-4.784-6.771-1.656-3.533-1.656-7.489 0-4.416 2.208-7.967 2.208-3.533 6.072-5.557 3.864-2.024 8.648-2.024 4.968 0 8.795 2.116 3.809 2.116 6.017 5.796t2.208 8.28q0 3.588-1.233 6.532-1.251 2.944-3.827 5.741-2.576 2.815-6.716 6.127l-7.268 5.796q-3.128 2.484-5.612 5.06-2.484 2.576-3.9 5.281-1.436 2.723-1.436 5.76 0 5.151 2.852 7.764 2.852 2.631 8.004 2.631 5.52 0 9.623-2.539 4.085-2.52 8.317-6.937l13.432-14.168q1.38-1.472 2.576-1.84 1.196-.368 2.668 1.012 1.472 1.38 1.527 2.852.037 1.472-1.343 3.036l-13.432 14.168q-4.784 5.428-10.396 8.869-5.612 3.46-12.972 3.46zm111.964-.368q-7.452 0-13.947-2.815-6.477-2.797-11.316-7.82-4.821-5.005-7.544-11.72-2.705-6.717-2.705-14.537 0-7.728 2.705-14.407 2.723-6.66 7.544-11.684 4.839-5.005 11.279-7.857 6.44-2.852 13.984-2.852 7.084 0 12.18 1.84 5.116 1.84 10.268 6.072.736.552 1.14 1.141.424.607.553 1.196.147.607.147 1.435 0 1.748-1.251 2.889-1.233 1.16-2.981 1.288-1.748.147-3.404-1.14-3.404-2.945-7.047-4.509-3.625-1.564-9.605-1.564-5.428 0-10.212 2.208t-8.427 6.072q-3.625 3.864-5.649 8.961-2.024 5.115-2.024 10.911 0 5.888 2.024 10.985 2.024 5.115 5.649 8.98 3.643 3.863 8.427 6.016 4.784 2.171 10.212 2.171 4.692 0 8.869-1.619 4.195-1.6 8.059-4.453 1.656-1.196 3.257-1.067 1.619.147 2.723 1.288 1.104 1.16 1.104 3.183 0 .92-.368 1.785-.368.883-1.104 1.62-4.968 3.955-10.635 5.98-5.649 2.023-11.905 2.023zm57.482-.552q-7.452 0-13.156-3.275-5.704-3.257-8.961-9.016-3.275-5.74-3.275-13.193 0-7.544 3.275-13.303 3.257-5.74 8.96-9.016 5.705-3.257 13.157-3.257 7.36 0 13.064 3.257 5.704 3.275 8.979 9.016 3.257 5.76 3.257 13.303 0 7.452-3.22 13.193-3.22 5.76-8.924 9.016-5.704 3.275-13.156 3.275zm0-8.28q4.784 0 8.464-2.208 3.68-2.208 5.759-6.072 2.06-3.864 2.06-8.924t-2.06-8.979q-2.08-3.9-5.76-6.109-3.68-2.208-8.463-2.208-4.784 0-8.464 2.208-3.68 2.208-5.796 6.109-2.116 3.92-2.116 8.98 0 5.06 2.116 8.923 2.116 3.864 5.796 6.072t8.464 2.208zm-391.205 37.165v3.01h-8.915v24.719h-3.635v-24.719h-8.892v-3.01h21.442zm19.781 11.926v2.987h-12.02v9.828h13.962v2.988h-17.612v-27.73h17.425v3.011h-13.775v8.916h12.02zm24.453 15.803l-2.652-7.239h-11.614l-2.613 7.239h-3.767l10.584-27.73h3.206l10.6 27.73h-3.744zm-8.455-23.213l-4.703 12.971h9.422l-4.719-12.971zm32.44 14.414h3.682q-.515 4.4-3.253 6.786-2.73 2.395-7.262 2.395-4.914 0-7.878-3.526-2.956-3.518-2.956-9.422v-2.668q0-3.869 1.38-6.801 1.381-2.933 3.916-4.501 2.528-1.576 5.866-1.576 4.415 0 7.082 2.473 2.668 2.465 3.105 6.825h-3.682q-.476-3.315-2.059-4.797-1.591-1.49-4.446-1.49-3.51 0-5.499 2.59-1.989 2.59-1.989 7.37v2.684q0 4.516 1.888 7.184 1.88 2.667 5.272 2.667 3.05 0 4.673-1.38 1.63-1.38 2.16-4.813zm29.976-18.93v27.729h-3.674v-12.816h-13.978v12.816h-3.658v-27.73h3.658v11.927h13.978v-11.926h3.674zm27.799 0v27.729h-3.674l-13.962-21.365v21.365h-3.674v-27.73h3.674l14.001 21.466v-21.465h3.635zm27.822 13.01v1.747q0 4.08-1.372 7.114-1.373 3.042-3.885 4.64-2.511 1.6-5.865 1.6-3.276 0-5.811-1.607-2.528-1.615-3.932-4.594-1.396-2.98-1.435-6.903v-1.997q0-4.001 1.389-7.067 1.388-3.065 3.93-4.695 2.544-1.63 5.82-1.63 3.33 0 5.873 1.614 2.543 1.607 3.916 4.664 1.372 3.058 1.372 7.114zm-3.634 2.02v-2.059q0-4.93-1.982-7.574-1.98-2.636-5.545-2.636-3.464 0-5.453 2.636-1.989 2.644-2.051 7.324v2.036q0 4.782 2.012 7.52 2.005 2.73 5.53 2.73 3.542 0 5.484-2.582 1.942-2.582 2.005-7.395zm12.792-15.03v24.741h13.135v2.988h-16.81v-27.73h3.675zm37.4 13.01v1.747q0 4.08-1.372 7.114-1.373 3.042-3.885 4.64-2.519 1.6-5.865 1.6-3.276 0-5.811-1.607-2.535-1.615-3.931-4.594-1.397-2.98-1.436-6.903v-1.997q0-4.001 1.389-7.067 1.388-3.065 3.931-4.695 2.543-1.63 5.819-1.63 3.33 0 5.873 1.614 2.543 1.607 3.916 4.664 1.373 3.058 1.373 7.114zm-3.642 2.02v-2.059q0-4.93-1.981-7.574-1.981-2.636-5.538-2.636-3.463 0-5.46 2.636-1.99 2.644-2.044 7.324v2.036q0 4.782 2.013 7.52 2.004 2.73 5.53 2.73 3.541 0 5.483-2.582 1.942-2.582 1.997-7.395zm29.593-1.107v10.17q-1.412 2.013-3.931 3.02-2.527.998-5.873.998-3.393 0-6.022-1.591-2.629-1.592-4.064-4.524-1.435-2.933-1.474-6.794v-2.426q0-6.263 2.917-9.711 2.925-3.448 8.221-3.448 4.345 0 6.99 2.223 2.643 2.216 3.236 6.295h-3.658q-1.03-5.507-6.552-5.507-3.674 0-5.57 2.582-1.895 2.582-1.91 7.472v2.27q0 4.665 2.13 7.418 2.136 2.753 5.771 2.753 2.06 0 3.604-.46 1.536-.46 2.55-1.544v-6.225h-6.419v-2.971h10.054zm7.348-13.923l7.2 13.923 7.238-13.923h4.15l-9.564 17.386v10.343h-3.65v-10.343l-9.563-17.386h4.189zm61.94 13.923v10.17q-1.404 2.013-3.932 3.02-2.519.998-5.873.998-3.393 0-6.022-1.591-2.62-1.592-4.063-4.524-1.436-2.933-1.475-6.794v-2.426q0-6.263 2.925-9.711 2.918-3.448 8.214-3.448 4.344 0 6.989 2.223 2.652 2.216 3.237 6.295h-3.659q-1.021-5.507-6.544-5.507-3.681 0-5.569 2.582-1.895 2.582-1.919 7.472v2.27q0 4.665 2.137 7.418 2.13 2.753 5.765 2.753 2.059 0 3.603-.46 1.545-.46 2.55-1.544v-6.225h-6.419v-2.971h10.055zm21.77-1.997v2.987h-12.02v9.828h13.962v2.988h-17.62v-27.73h17.425v3.011h-13.767v8.916h12.02zm22.16 0v2.987h-12.013v9.828h13.954v2.988h-17.612v-27.73h17.425v3.011h-13.767v8.916h12.012zm23.36 15.803l-9.82-12.894-3.393 3.526v9.368h-3.658v-27.73h3.658v13.713l12.324-13.712h4.415l-10.912 12.246 11.77 15.483h-4.384zm15.748-12.356q-4.703-1.357-6.84-3.322-2.145-1.974-2.145-4.868 0-3.276 2.62-5.42 2.614-2.146 6.802-2.146 2.863 0 5.094 1.108 2.238 1.108 3.47 3.05 1.225 1.942 1.225 4.243h-3.674q0-2.512-1.599-3.947-1.599-1.443-4.516-1.443-2.699 0-4.212 1.194-1.52 1.185-1.52 3.299 0 1.7 1.442 2.87 1.435 1.17 4.89 2.138 3.456.975 5.414 2.145 1.95 1.17 2.894 2.73.944 1.567.944 3.681 0 3.37-2.629 5.398-2.629 2.028-7.028 2.028-2.855 0-5.335-1.1-2.473-1.092-3.814-2.995-1.342-1.903-1.342-4.321h3.674q0 2.511 1.856 3.97 1.857 1.458 4.961 1.458 2.894 0 4.438-1.185 1.537-1.178 1.537-3.214 0-2.043-1.427-3.151-1.428-1.115-5.18-2.2z" class="logo-fill"/><circle r="23" class="logo-fill" transform="matrix(.85 0 0 .85 176.12 30.27)"/><path d="M6.506 74.754l73.735-1.328c.923 2.612 3.392 4.505 6.323 4.541.991.011 1.986.018 2.98.018 27.68-.015 51.14-5.096 62.729-8.137v132.351c0 5.805 4.706 10.508 10.51 10.508 5.802 0 10.509-4.703 10.509-10.508v-76.732h3.94v76.732c0 5.805 4.705 10.508 10.51 10.508 5.802 0 10.508-4.703 10.508-10.508V74.915a36.77 36.77 0 011.51 3.597c2.395 6.641 4.41 17.536 4.404 34.543 0 4.689-.15 9.839-.478 15.493a6.796 6.796 0 006.796 7.194 6.8 6.8 0 006.782-6.406c.34-5.89.5-11.304.501-16.28-.035-25.656-4.132-39.855-9.72-48.393-2.79-4.238-6.057-6.956-9.077-8.462-1.97-.993-3.775-1.462-5.216-1.668a6.546 6.546 0 00-2.07-.339h-32.84c-.558 0-1.098.078-1.615.209a6.79 6.79 0 00-1.47.307h-.002l-.271.088c-3.054.983-31.343 9.605-65.94 9.589-.928 0-1.867-.007-2.811-.018a6.798 6.798 0 00-6.584 4.808L6.428 70.505l.078 4.25z" class="logo-fill"/></svg>