<svg width="90" height="31" viewBox="0 0 90 31" fill="none" xmlns="http://www.w3.org/2000/svg">
<path d="M17.3086 30.984H12.54C11.9118 30.984 11.4006 30.4731 11.4006 29.845V23.7295C11.4006 23.2505 11.7893 22.8619 12.2685 22.8619H13.8994V20.8607H6.26111C5.92214 20.8607 5.61512 20.6637 5.47314 20.3568C5.33117 20.0499 5.38264 19.688 5.6027 19.4307L14.8347 8.6527C14.8507 8.63319 14.8666 8.61545 14.8844 8.59771C14.95 8.53206 15.0228 8.47884 15.1009 8.43803C15.2198 8.37594 15.3564 8.34045 15.5002 8.34045H17.4595C18.0877 8.34045 18.5988 8.85141 18.5988 9.47946V18.7139H20.0505C21.5448 18.7139 22.764 19.9292 22.7658 21.4249L22.7711 22.1931C22.7729 22.924 22.4907 23.6071 21.9778 24.1198C21.465 24.6343 20.7817 24.9164 20.0558 24.9164H18.4497V29.8414C18.4497 30.473 17.9369 30.984 17.3086 30.984Z" fill="white"/>
<path d="M15.5002 10.1412H11.0617C10.547 10.1412 10.1282 9.72423 10.1282 9.20795C10.1282 8.1541 9.27102 7.29718 8.21685 7.29718C7.16268 7.29718 6.3055 8.1541 6.3055 9.20795C6.3055 9.72246 5.88845 10.1412 5.37201 10.1412H0.933491C0.418828 10.1412 0 9.72423 0 9.20795C0 8.37765 0.124229 7.55621 0.369138 6.76671C0.372687 6.75252 0.376235 6.7401 0.381559 6.72591C0.415278 6.61946 0.452548 6.51123 0.493366 6.39769C0.50224 6.37462 0.509338 6.35511 0.518212 6.33382L0.525309 6.31253C0.557254 6.22559 0.592748 6.13866 0.628242 6.05173C0.64244 6.01979 0.656638 5.98608 0.670836 5.95415L0.67971 5.93463C0.711655 5.86012 0.747147 5.78383 0.780866 5.70931C0.798613 5.67028 0.818135 5.63125 0.835882 5.59222C0.874925 5.51416 0.91397 5.43609 0.956563 5.35803L0.968984 5.33319C0.981407 5.31013 0.992057 5.28884 1.00448 5.26578C1.06482 5.15578 1.12516 5.04933 1.1855 4.94998C1.19437 4.93578 1.20325 4.92159 1.21212 4.90562C1.26891 4.81514 1.32393 4.7282 1.38072 4.64304C1.39846 4.61821 1.41621 4.5916 1.43396 4.56676L1.44993 4.54369C1.49607 4.47627 1.54399 4.40886 1.59368 4.34321C1.61852 4.3095 1.64515 4.27402 1.67177 4.24031C1.72146 4.17467 1.7747 4.10725 1.82617 4.04338L1.84391 4.02032C1.86166 3.99903 1.87941 3.97596 1.89715 3.95467C1.97701 3.85887 2.05155 3.77371 2.12431 3.6921C2.12786 3.68855 2.12964 3.685 2.13319 3.68146C2.20772 3.59984 2.28936 3.51468 2.38165 3.42065C2.40117 3.40114 2.42247 3.38162 2.44199 3.3621L2.46328 3.34081C2.52362 3.28227 2.58396 3.22372 2.6443 3.16695C2.67624 3.13856 2.70819 3.11017 2.74014 3.08001C2.80225 3.02501 2.86436 2.97179 2.92648 2.91856L2.95132 2.89728C2.9744 2.87776 2.99569 2.86002 3.01876 2.8405C3.09685 2.77663 3.17671 2.71454 3.25657 2.65244C3.2761 2.63647 3.29029 2.62583 3.30449 2.61519C3.39855 2.54599 3.49793 2.47503 3.60087 2.40406C3.62039 2.38987 3.64346 2.37568 3.66475 2.36148L3.68782 2.34729C3.76059 2.29938 3.83335 2.25148 3.90788 2.20536C3.94515 2.18229 3.98065 2.161 4.01792 2.13971C4.08713 2.09713 4.15989 2.05633 4.23088 2.0173C4.27347 1.99423 4.30719 1.97472 4.34091 1.95698C4.42255 1.91262 4.50419 1.87181 4.5876 1.83101L4.60712 1.82214C4.62664 1.81149 4.64793 1.80085 4.66746 1.79197C4.77571 1.74052 4.88929 1.68908 5.0011 1.64118C5.0224 1.6323 5.04369 1.62343 5.06322 1.61633L5.08273 1.60924C5.16792 1.57375 5.25666 1.53827 5.34539 1.50634C5.37734 1.49392 5.41106 1.4815 5.44655 1.47085L5.46607 1.46376C5.54416 1.43537 5.62225 1.40876 5.70211 1.38392C5.7447 1.36973 5.78552 1.35731 5.82633 1.34489C5.91152 1.31828 5.99848 1.29521 6.08367 1.27215L6.11029 1.26505C6.13513 1.25795 6.16175 1.25086 6.18837 1.24376C6.31083 1.21183 6.43329 1.18344 6.55219 1.16038C6.56994 1.15683 6.58768 1.15328 6.60543 1.14973C6.71369 1.12844 6.81839 1.10893 6.9231 1.09296C6.95505 1.08764 6.98699 1.08409 7.01893 1.07877L7.04733 1.07522C7.13251 1.0628 7.2177 1.05215 7.30466 1.04328C7.34903 1.03796 7.3934 1.03441 7.43954 1.02909C7.52827 1.02022 7.61701 1.0149 7.70752 1.00958L7.73591 1.0078C7.76608 1.00603 7.79802 1.00425 7.82819 1.00248C8.10682 0.990059 8.32334 0.990059 8.60197 1.00248C8.63214 1.00425 8.6623 1.00603 8.69425 1.0078L8.72442 1.00958C8.81315 1.0149 8.90189 1.02199 8.98885 1.02909C9.03499 1.03264 9.08114 1.03796 9.1255 1.04328C9.21069 1.05215 9.29587 1.0628 9.38106 1.07522L9.40945 1.07877C9.4414 1.08409 9.47512 1.08764 9.50706 1.09296C9.61177 1.10893 9.7147 1.12844 9.81941 1.14796C9.84425 1.15328 9.862 1.15506 9.87975 1.1586C9.99688 1.18344 10.1158 1.21006 10.2436 1.24199C10.2684 1.24909 10.295 1.25618 10.3199 1.26328L10.3465 1.27038C10.4335 1.29344 10.5186 1.31828 10.6038 1.34311C10.6464 1.35553 10.6872 1.36973 10.7281 1.38214C10.8079 1.40876 10.8878 1.43537 10.9641 1.46198L10.9854 1.46908C11.0191 1.4815 11.051 1.49214 11.0848 1.50456C11.1717 1.5365 11.2605 1.57198 11.3456 1.60747L11.3652 1.61456C11.3865 1.62343 11.4078 1.63053 11.4273 1.6394C11.5391 1.6873 11.6509 1.73698 11.7609 1.7902C11.7822 1.80085 11.8017 1.80972 11.8213 1.82036L11.8408 1.83101C11.9224 1.87181 12.0058 1.9144 12.0875 1.95698C12.1176 1.97294 12.1496 1.99068 12.1798 2.00665L12.1975 2.0173C12.2685 2.05633 12.3413 2.09891 12.4105 2.13971C12.446 2.161 12.4832 2.18407 12.5205 2.20536C12.595 2.25148 12.6678 2.29938 12.7423 2.34729L12.7654 2.36148C12.7867 2.37568 12.808 2.38987 12.8293 2.40406C12.9305 2.47325 13.0298 2.54422 13.1239 2.61341C13.1381 2.62405 13.1523 2.6347 13.1647 2.64535C13.2517 2.71099 13.3315 2.77309 13.4096 2.83696C13.4327 2.85647 13.4558 2.87421 13.4771 2.89373L13.5001 2.91324C13.564 2.96647 13.6261 3.02147 13.6865 3.07469C13.7184 3.10308 13.7504 3.13324 13.7823 3.16162C13.8444 3.2184 13.9048 3.27695 13.9651 3.33549L13.9864 3.35678C14.0059 3.3763 14.0254 3.39582 14.0467 3.41533C14.1408 3.50936 14.2224 3.59452 14.297 3.6779C14.2987 3.67968 14.3023 3.68323 14.3041 3.685C14.3786 3.76661 14.4531 3.85355 14.5348 3.95112C14.5525 3.97241 14.5703 3.9937 14.588 4.01499L14.6058 4.03806C14.659 4.1037 14.7105 4.16934 14.7619 4.23676C14.7886 4.27047 14.8134 4.30596 14.84 4.34144C14.8879 4.40709 14.9359 4.4745 14.982 4.54192L14.998 4.56498C15.0157 4.59159 15.0335 4.61643 15.0512 4.64304C15.108 4.7282 15.163 4.81336 15.2163 4.90207C15.2287 4.92159 15.2376 4.93578 15.2464 4.95175C15.305 5.04933 15.3671 5.15578 15.4275 5.26578C15.4399 5.28884 15.4523 5.31013 15.463 5.33319L15.4754 5.35803C15.5162 5.43609 15.557 5.51238 15.5961 5.59222C15.6156 5.63125 15.6333 5.67028 15.6511 5.70931C15.6866 5.78383 15.7203 5.85834 15.7522 5.93463L15.7611 5.95237C15.7753 5.98431 15.7895 6.01802 15.8037 6.05173C15.8392 6.13866 15.8747 6.22559 15.9066 6.3143L15.9137 6.33204C15.9226 6.35333 15.9297 6.37285 15.9368 6.39414C15.9794 6.50946 16.0149 6.61768 16.0486 6.72413C16.0521 6.73833 16.0575 6.75074 16.061 6.76493C16.2207 7.27767 16.329 7.80459 16.3858 8.33684C16.416 8.62425 15.9545 8.78925 15.9545 9.08021C15.9563 9.59826 16.0149 10.1412 15.5002 10.1412Z" fill="#FFD83D"/>
<path d="M14.7655 24.5951H0.931709C0.45254 24.5951 0.0638809 24.2066 0.0638809 23.7276V19.993C0.0638809 19.7783 0.143741 19.5725 0.287492 19.4128L10.0164 8.62773C10.1814 8.445 10.4157 8.3421 10.6606 8.3421H16.3876C16.3876 8.3421 16.5295 9.33917 16.1586 9.77207L8.14586 19.1254H14.7655C15.2447 19.1254 15.6333 19.514 15.6333 19.993V23.7276C15.6333 24.2084 15.2447 24.5951 14.7655 24.5951Z" fill="#FF3C78"/>
<path d="M65.403 11.0105C64.0791 10.088 62.5422 9.78813 60.8349 10.1199C58.2829 10.6149 56.4904 12.7616 56.4727 15.3377C56.4585 17.3957 56.4603 19.4874 56.462 21.51C56.462 22.6437 56.4638 23.7773 56.462 24.911C56.462 25.1222 56.5739 25.2339 56.7868 25.2339C57.4293 25.2304 58.1871 25.2268 58.9484 25.2339C58.9555 25.2339 58.9644 25.2339 58.9732 25.2339C59.0425 25.2339 59.1525 25.2268 59.2341 25.1452C59.3158 25.0636 59.3264 24.9518 59.3246 24.8649C59.3193 23.5041 59.3211 22.1433 59.3211 20.7826V19.8778C59.9919 20.5306 60.826 20.905 61.7986 20.9937C63.9619 21.1889 65.6461 20.3816 66.8068 18.5897C67.5823 17.3957 67.8379 16.0083 67.5699 14.4666C67.3179 12.9976 66.5867 11.8337 65.403 11.0105ZM64.7676 15.5204C64.7694 16.2744 64.489 16.9699 63.9797 17.4809C63.481 17.9812 62.8048 18.2562 62.0772 18.2562C62.0754 18.2562 62.0736 18.2562 62.0719 18.2562C60.5332 18.2544 59.3708 17.0817 59.3672 15.5311C59.3655 14.7771 59.6441 14.0816 60.1516 13.5742C60.6521 13.0721 61.3354 12.7971 62.0754 12.7971H62.0772C63.5839 12.7953 64.7659 13.9929 64.7676 15.5204Z" fill="white"/>
<path d="M54.1834 15.5222C54.1834 15.1691 54.1674 14.8995 54.1337 14.6422C53.9065 12.9603 53.0848 11.6758 51.6935 10.826C50.2932 9.97085 48.7208 9.76327 47.0171 10.2068C45.4288 10.6202 44.2628 11.5658 43.5511 13.0188C42.9921 14.1596 42.8484 15.4317 43.1199 16.796C43.6221 19.3224 45.6914 21.0274 48.2683 21.038C48.2736 21.038 48.2807 21.038 48.286 21.038C49.3704 21.038 50.3163 20.6797 51.0972 19.9753C51.2391 19.8458 51.3705 19.7056 51.4947 19.5619C51.4947 19.8813 51.4947 20.2024 51.4911 20.5218C51.4911 20.5892 51.4982 20.6885 51.5728 20.763C51.6562 20.8464 51.7698 20.8446 51.8159 20.8446C52.4619 20.8411 53.1505 20.8376 53.8408 20.8464C53.9207 20.8482 54.0236 20.8376 54.1 20.7613C54.1763 20.685 54.1869 20.5856 54.1869 20.4969C54.1834 19.3898 54.1834 18.281 54.1834 17.1739V15.5222ZM48.9977 18.226C48.3819 18.3112 47.837 18.2278 47.3313 17.9705C46.6462 17.6246 46.2061 17.0763 45.986 16.2993C45.9133 16.0402 45.8796 15.7777 45.8884 15.5186C45.9434 14.2625 46.467 13.4429 47.4892 13.0118C47.8495 12.8592 48.2346 12.7847 48.6161 12.7847C49.0687 12.7847 49.5177 12.8911 49.9134 13.1022C50.6002 13.4695 51.0652 14.1224 51.2232 14.9403C51.4006 15.8628 51.2036 16.6718 50.6411 17.3478C50.2329 17.8357 49.681 18.132 48.9977 18.226Z" fill="white"/>
<path d="M89.4786 17.2803H88.8663C88.27 17.2803 87.6808 17.2803 87.0916 17.2785C86.923 17.2767 86.8502 17.4009 86.8183 17.4577C86.6657 17.7291 86.4439 17.9438 86.1386 18.1106C85.7251 18.3377 85.2371 18.4601 84.6496 18.4867C83.7197 18.5275 82.9725 18.3093 82.362 17.8214C81.9858 17.5216 81.7977 17.2075 81.7693 16.8332C81.7622 16.725 81.7728 16.6487 81.803 16.6168C81.8332 16.583 81.913 16.5653 82.0266 16.5653C82.3319 16.5635 82.6371 16.5635 82.9406 16.5635H83.2405C85.2424 16.5635 87.2425 16.5635 89.2461 16.5653C89.3401 16.5653 89.5584 16.5653 89.6099 16.2761C89.743 15.5363 89.759 14.8728 89.6614 14.2465C89.4076 12.6231 88.5735 11.4167 87.1857 10.6591C85.9824 10.0027 84.6177 9.82173 83.1287 10.1216C81.5191 10.448 80.3087 11.3032 79.5349 12.6675C78.8375 13.8987 78.637 15.2755 78.9404 16.7605C79.3309 18.6712 80.4241 19.9805 82.1917 20.6512C82.9015 20.9209 83.6292 21.0557 84.371 21.0557C85.1767 21.0557 85.9966 20.8978 86.829 20.5802C88.2026 20.0568 89.152 19.0261 89.6525 17.5198C89.672 17.463 89.6614 17.4009 89.6277 17.353C89.5939 17.3087 89.5371 17.2803 89.4786 17.2803ZM81.7391 14.2944C82 13.3807 82.6034 12.8183 83.583 12.5752C83.8883 12.4989 84.1864 12.4617 84.4793 12.4617C84.962 12.4617 85.4269 12.5664 85.8688 12.7739C86.3782 13.0134 86.703 13.347 86.8644 13.7923C86.8946 13.8792 86.9141 13.9768 86.9248 14.0886C86.9319 14.1684 86.9212 14.2252 86.8982 14.2518C86.8733 14.2784 86.8148 14.2926 86.7331 14.2944C86.2167 14.2944 85.7003 14.2944 85.1838 14.2944H83.5529C82.9477 14.2926 82.3425 14.2926 81.7391 14.2944Z" fill="white"/>
<path d="M40.0514 14.8337C39.5918 14.5889 39.0753 14.4345 38.4772 14.3582C37.9289 14.289 37.3698 14.2465 36.8303 14.2056C36.5499 14.1844 36.2677 14.1631 35.9873 14.1382L35.943 14.1347C35.6395 14.1081 35.352 14.0815 35.0893 13.9661C34.8409 13.8561 34.7131 13.6965 34.6883 13.4623C34.6439 13.0631 34.8338 12.7863 35.2508 12.6373C35.8507 12.4226 36.4825 12.3907 37.1267 12.5397C37.7762 12.6905 38.2022 13.0116 38.4293 13.5208C38.511 13.7018 38.6796 13.6982 38.7346 13.6965H38.7523C39.5421 13.6965 40.3336 13.6965 41.1233 13.6965C41.1517 13.6965 41.1801 13.6947 41.2103 13.6929L41.2422 13.6911C41.2919 13.6876 41.3398 13.6645 41.3718 13.6273C41.4037 13.5882 41.4197 13.5386 41.4161 13.4889L41.4144 13.4747C41.4126 13.4552 41.4108 13.4374 41.4073 13.4197C41.1216 12.0146 40.3052 11.0264 38.9795 10.4835C37.4461 9.85364 35.8507 9.80929 34.2357 10.3504C32.7574 10.8454 31.9552 11.8176 31.847 13.2405C31.7742 14.2145 32.0777 15.0147 32.7503 15.6232C33.2951 16.1146 33.9748 16.4145 34.8267 16.5387C35.391 16.6203 35.9643 16.6664 36.5198 16.7108C36.8268 16.7356 37.1444 16.7604 37.4568 16.7924C37.7833 16.8243 38.0762 16.8633 38.33 17.0053C38.5979 17.1543 38.7239 17.4151 38.676 17.7185C38.6245 18.0449 38.4205 18.2649 38.0531 18.3944C37.3255 18.6499 36.5588 18.6623 35.7105 18.4299C35.1231 18.2685 34.7451 17.9509 34.5569 17.4595C34.4789 17.2572 34.2996 17.2643 34.241 17.2661H34.2215C33.4424 17.2661 32.6616 17.2661 31.8718 17.2661C31.831 17.2625 31.7227 17.2519 31.6322 17.3424C31.5896 17.3849 31.5701 17.447 31.5808 17.5074C31.8239 18.8202 32.548 19.7942 33.7299 20.4045C34.3937 20.747 35.1444 20.9457 36.0264 21.0149C36.2766 21.0344 36.5198 21.0432 36.7576 21.0432C37.5509 21.0432 38.2714 20.935 38.9458 20.7132C39.7657 20.4453 40.3833 20.0408 40.8305 19.4749C41.4162 18.7351 41.6327 17.8373 41.4729 16.8048C41.3398 15.923 40.8607 15.2613 40.0514 14.8337Z" fill="white"/>
<path d="M77.423 12.8326C77.4781 12.8326 77.5917 12.8326 77.6751 12.7492C77.7496 12.6747 77.7567 12.5736 77.7567 12.5044C77.7496 11.8568 77.7496 11.1915 77.7567 10.528C77.7567 10.457 77.7496 10.3523 77.6733 10.2743C77.5881 10.1873 77.4674 10.1891 77.416 10.1891C76.8711 10.1909 76.3281 10.1909 75.7832 10.1909C75.1763 10.1909 74.5693 10.1909 73.9624 10.1944C73.9659 9.58588 73.9659 8.97912 73.9659 8.37058C73.9659 7.88979 73.9659 7.40899 73.9677 6.92997C73.9677 6.86965 73.9677 6.75788 73.8843 6.67449C73.808 6.59998 73.7104 6.59111 73.6394 6.59288C72.9739 6.5982 72.2445 6.5982 71.4121 6.59288C71.3483 6.59288 71.2524 6.59997 71.1797 6.67271C71.098 6.75433 71.0998 6.86432 71.0998 6.91045C71.1033 7.34335 71.1033 7.77624 71.1016 8.20913V8.54622C71.1016 8.65622 71.1016 8.76622 71.1033 8.87622C71.1051 9.14057 71.1069 9.41201 71.098 9.67814C71.0874 10.0188 70.9454 10.1678 70.6242 10.1784C70.1184 10.1962 69.6002 10.1926 69.1015 10.1891L68.901 10.1873C68.8175 10.1873 68.7235 10.1962 68.6489 10.2707C68.5726 10.347 68.5655 10.4481 68.5655 10.5173C68.5709 11.156 68.5709 11.8266 68.5655 12.5097C68.5655 12.5771 68.5726 12.6747 68.6472 12.7492C68.7288 12.8308 68.8371 12.829 68.8921 12.8308C69.6303 12.8255 70.3686 12.8308 71.1069 12.8255C71.1016 13.3755 71.1033 13.9326 71.1033 14.4737V15.4938C71.1033 15.9391 71.1033 16.3862 71.1033 16.8315C71.1016 17.2964 71.1459 17.7186 71.2365 18.1249C71.4796 19.2089 72.012 19.9665 72.8674 20.4419C73.4974 20.7932 74.225 20.9564 75.155 20.9564C75.1692 20.9564 75.1834 20.9564 75.1976 20.9564C76.0157 20.9529 76.7558 20.905 77.4603 20.8127C77.5349 20.8039 77.7602 20.7737 77.7567 20.481C77.7531 19.8423 77.7514 19.145 77.7567 18.3467C77.7567 18.2934 77.7567 18.1817 77.6697 18.1036C77.581 18.0255 77.4692 18.0415 77.4195 18.0486C76.5978 18.1604 75.9128 18.1959 75.2632 18.1568C74.5534 18.1142 74.1576 17.7949 74.0156 17.1473C73.9855 17.0107 73.9713 16.8865 73.9713 16.7694V16.0828C73.9695 14.9971 73.9695 13.9113 73.9642 12.8273H75.1355C75.895 12.8308 76.6582 12.8308 77.423 12.8326Z" fill="white"/>
</svg>
