<svg width="23" height="31" viewBox="0 0 23 31" fill="red" xmlns="http://www.w3.org/2000/svg">
<path d="M17.3086 30.984H12.54C11.9118 30.984 11.4006 30.4731 11.4006 29.845V23.7295C11.4006 23.2505 11.7893 22.8619 12.2685 22.8619H13.8994V20.8607H6.26111C5.92214 20.8607 5.61512 20.6637 5.47314 20.3568C5.33117 20.0499 5.38264 19.688 5.6027 19.4307L14.8347 8.6527C14.8507 8.63319 14.8666 8.61545 14.8844 8.59771C14.95 8.53206 15.0228 8.47884 15.1009 8.43803C15.2198 8.37594 15.3564 8.34045 15.5002 8.34045H17.4595C18.0877 8.34045 18.5988 8.85141 18.5988 9.47946V18.7139H20.0505C21.5448 18.7139 22.764 19.9292 22.7658 21.4249L22.7711 22.1931C22.7729 22.924 22.4907 23.6071 21.9778 24.1198C21.465 24.6343 20.7817 24.9164 20.0558 24.9164H18.4497V29.8414C18.4497 30.473 17.9369 30.984 17.3086 30.984Z" fill="white"/>
<path d="M15.5002 10.1412H11.0617C10.547 10.1412 10.1282 9.72423 10.1282 9.20795C10.1282 8.1541 9.27102 7.29718 8.21685 7.29718C7.16268 7.29718 6.3055 8.1541 6.3055 9.20795C6.3055 9.72246 5.88845 10.1412 5.37201 10.1412H0.933491C0.418828 10.1412 0 9.72423 0 9.20795C0 8.37765 0.124229 7.55621 0.369138 6.76671C0.372687 6.75252 0.376235 6.7401 0.381559 6.72591C0.415278 6.61946 0.452548 6.51123 0.493366 6.39769C0.50224 6.37462 0.509338 6.35511 0.518212 6.33382L0.525309 6.31253C0.557254 6.22559 0.592748 6.13866 0.628242 6.05173C0.64244 6.01979 0.656638 5.98608 0.670836 5.95415L0.67971 5.93463C0.711655 5.86012 0.747147 5.78383 0.780866 5.70931C0.798613 5.67028 0.818135 5.63125 0.835882 5.59222C0.874925 5.51416 0.91397 5.43609 0.956563 5.35803L0.968984 5.33319C0.981407 5.31013 0.992057 5.28884 1.00448 5.26578C1.06482 5.15578 1.12516 5.04933 1.1855 4.94998C1.19437 4.93578 1.20325 4.92159 1.21212 4.90562C1.26891 4.81514 1.32393 4.7282 1.38072 4.64304C1.39846 4.61821 1.41621 4.5916 1.43396 4.56676L1.44993 4.54369C1.49607 4.47627 1.54399 4.40886 1.59368 4.34321C1.61852 4.3095 1.64515 4.27402 1.67177 4.24031C1.72146 4.17467 1.7747 4.10725 1.82617 4.04338L1.84391 4.02032C1.86166 3.99903 1.87941 3.97596 1.89715 3.95467C1.97701 3.85887 2.05155 3.77371 2.12431 3.6921C2.12786 3.68855 2.12964 3.685 2.13319 3.68146C2.20772 3.59984 2.28936 3.51468 2.38165 3.42065C2.40117 3.40114 2.42247 3.38162 2.44199 3.3621L2.46328 3.34081C2.52362 3.28227 2.58396 3.22372 2.6443 3.16695C2.67624 3.13856 2.70819 3.11017 2.74014 3.08001C2.80225 3.02501 2.86436 2.97179 2.92648 2.91856L2.95132 2.89728C2.9744 2.87776 2.99569 2.86002 3.01876 2.8405C3.09685 2.77663 3.17671 2.71454 3.25657 2.65244C3.2761 2.63647 3.29029 2.62583 3.30449 2.61519C3.39855 2.54599 3.49793 2.47503 3.60087 2.40406C3.62039 2.38987 3.64346 2.37568 3.66475 2.36148L3.68782 2.34729C3.76059 2.29938 3.83335 2.25148 3.90788 2.20536C3.94515 2.18229 3.98065 2.161 4.01792 2.13971C4.08713 2.09713 4.15989 2.05633 4.23088 2.0173C4.27347 1.99423 4.30719 1.97472 4.34091 1.95698C4.42255 1.91262 4.50419 1.87181 4.5876 1.83101L4.60712 1.82214C4.62664 1.81149 4.64793 1.80085 4.66746 1.79197C4.77571 1.74052 4.88929 1.68908 5.0011 1.64118C5.0224 1.6323 5.04369 1.62343 5.06322 1.61633L5.08273 1.60924C5.16792 1.57375 5.25666 1.53827 5.34539 1.50634C5.37734 1.49392 5.41106 1.4815 5.44655 1.47085L5.46607 1.46376C5.54416 1.43537 5.62225 1.40876 5.70211 1.38392C5.7447 1.36973 5.78552 1.35731 5.82633 1.34489C5.91152 1.31828 5.99848 1.29521 6.08367 1.27215L6.11029 1.26505C6.13513 1.25795 6.16175 1.25086 6.18837 1.24376C6.31083 1.21183 6.43329 1.18344 6.55219 1.16038C6.56994 1.15683 6.58768 1.15328 6.60543 1.14973C6.71369 1.12844 6.81839 1.10893 6.9231 1.09296C6.95505 1.08764 6.98699 1.08409 7.01893 1.07877L7.04733 1.07522C7.13251 1.0628 7.2177 1.05215 7.30466 1.04328C7.34903 1.03796 7.3934 1.03441 7.43954 1.02909C7.52827 1.02022 7.61701 1.0149 7.70752 1.00958L7.73591 1.0078C7.76608 1.00603 7.79802 1.00425 7.82819 1.00248C8.10682 0.990059 8.32334 0.990059 8.60197 1.00248C8.63214 1.00425 8.6623 1.00603 8.69425 1.0078L8.72442 1.00958C8.81315 1.0149 8.90189 1.02199 8.98885 1.02909C9.03499 1.03264 9.08114 1.03796 9.1255 1.04328C9.21069 1.05215 9.29587 1.0628 9.38106 1.07522L9.40945 1.07877C9.4414 1.08409 9.47512 1.08764 9.50706 1.09296C9.61177 1.10893 9.7147 1.12844 9.81941 1.14796C9.84425 1.15328 9.862 1.15506 9.87975 1.1586C9.99688 1.18344 10.1158 1.21006 10.2436 1.24199C10.2684 1.24909 10.295 1.25618 10.3199 1.26328L10.3465 1.27038C10.4335 1.29344 10.5186 1.31828 10.6038 1.34311C10.6464 1.35553 10.6872 1.36973 10.7281 1.38214C10.8079 1.40876 10.8878 1.43537 10.9641 1.46198L10.9854 1.46908C11.0191 1.4815 11.051 1.49214 11.0848 1.50456C11.1717 1.5365 11.2605 1.57198 11.3456 1.60747L11.3652 1.61456C11.3865 1.62343 11.4078 1.63053 11.4273 1.6394C11.5391 1.6873 11.6509 1.73698 11.7609 1.7902C11.7822 1.80085 11.8017 1.80972 11.8213 1.82036L11.8408 1.83101C11.9224 1.87181 12.0058 1.9144 12.0875 1.95698C12.1176 1.97294 12.1496 1.99068 12.1798 2.00665L12.1975 2.0173C12.2685 2.05633 12.3413 2.09891 12.4105 2.13971C12.446 2.161 12.4832 2.18407 12.5205 2.20536C12.595 2.25148 12.6678 2.29938 12.7423 2.34729L12.7654 2.36148C12.7867 2.37568 12.808 2.38987 12.8293 2.40406C12.9305 2.47325 13.0298 2.54422 13.1239 2.61341C13.1381 2.62405 13.1523 2.6347 13.1647 2.64535C13.2517 2.71099 13.3315 2.77309 13.4096 2.83696C13.4327 2.85647 13.4558 2.87421 13.4771 2.89373L13.5001 2.91324C13.564 2.96647 13.6261 3.02147 13.6865 3.07469C13.7184 3.10308 13.7504 3.13324 13.7823 3.16162C13.8444 3.2184 13.9048 3.27695 13.9651 3.33549L13.9864 3.35678C14.0059 3.3763 14.0254 3.39582 14.0467 3.41533C14.1408 3.50936 14.2224 3.59452 14.297 3.6779C14.2987 3.67968 14.3023 3.68323 14.3041 3.685C14.3786 3.76661 14.4531 3.85355 14.5348 3.95112C14.5525 3.97241 14.5703 3.9937 14.588 4.01499L14.6058 4.03806C14.659 4.1037 14.7105 4.16934 14.7619 4.23676C14.7886 4.27047 14.8134 4.30596 14.84 4.34144C14.8879 4.40709 14.9359 4.4745 14.982 4.54192L14.998 4.56498C15.0157 4.59159 15.0335 4.61643 15.0512 4.64304C15.108 4.7282 15.163 4.81336 15.2163 4.90207C15.2287 4.92159 15.2376 4.93578 15.2464 4.95175C15.305 5.04933 15.3671 5.15578 15.4275 5.26578C15.4399 5.28884 15.4523 5.31013 15.463 5.33319L15.4754 5.35803C15.5162 5.43609 15.557 5.51238 15.5961 5.59222C15.6156 5.63125 15.6333 5.67028 15.6511 5.70931C15.6866 5.78383 15.7203 5.85834 15.7522 5.93463L15.7611 5.95237C15.7753 5.98431 15.7895 6.01802 15.8037 6.05173C15.8392 6.13866 15.8747 6.22559 15.9066 6.3143L15.9137 6.33204C15.9226 6.35333 15.9297 6.37285 15.9368 6.39414C15.9794 6.50946 16.0149 6.61768 16.0486 6.72413C16.0521 6.73833 16.0575 6.75074 16.061 6.76493C16.2207 7.27767 16.329 7.80459 16.3858 8.33684C16.416 8.62425 15.9545 8.78925 15.9545 9.08021C15.9563 9.59826 16.0149 10.1412 15.5002 10.1412Z" fill="#FFD83D"/>
<path d="M14.7655 24.5951H0.931709C0.45254 24.5951 0.0638809 24.2066 0.0638809 23.7276V19.993C0.0638809 19.7783 0.143741 19.5725 0.287492 19.4128L10.0164 8.62773C10.1814 8.445 10.4157 8.3421 10.6606 8.3421H16.3876C16.3876 8.3421 16.5295 9.33917 16.1586 9.77207L8.14586 19.1254H14.7655C15.2447 19.1254 15.6333 19.514 15.6333 19.993V23.7276C15.6333 24.2084 15.2447 24.5951 14.7655 24.5951Z" fill="#FF3C78"/>
</svg>
